<svg xmlns="http://www.w3.org/2000/svg" width="92" height="40" fill="none" xmlns:v="https://vecta.io/nano"><mask id="A" fill="#fff"><path d="M22.91 19.144c.316 0 .644.067.985.2a4.83 4.83 0 0 1 .985.529h-.018a2.12 2.12 0 0 1 .729.893c.17.377.255.808.255 1.294v2.498c0 .985-.328 1.72-.985 2.206a4.38 4.38 0 0 1-.985.547 2.77 2.77 0 0 1-.966.182h-3.975a2.92 2.92 0 0 1-.985-.182c-.328-.134-.65-.316-.966-.547-.656-.486-.985-1.221-.985-2.206v-1.203c0-.571.359-.857 1.076-.857.729 0 1.094.286 1.094.857v1.057a1.44 1.44 0 0 0 .274.857c.182.255.498.383.948.383h3.063c.45 0 .766-.128.948-.383a1.44 1.44 0 0 0 .273-.857v-2.206a1.41 1.41 0 0 0-.273-.839c-.182-.267-.498-.401-.948-.401h-3.519c-.632 0-1.282-.231-1.951-.693-.656-.511-.985-1.246-.985-2.206v-2.17c0-.486.085-.912.255-1.276.17-.377.413-.681.729-.912h-.018a5.41 5.41 0 0 1 .985-.511 2.68 2.68 0 0 1 .985-.201h3.975c.316 0 .644.067.985.201a5.41 5.41 0 0 1 .985.511h-.018c.316.231.559.535.729.912.17.365.255.79.255 1.276v1.076c0 .571-.365.857-1.094.857-.717 0-1.076-.286-1.076-.857v-.912a1.41 1.41 0 0 0-.273-.839c-.182-.255-.498-.383-.948-.383h-3.063c-.45 0-.766.128-.948.383a1.41 1.41 0 0 0-.274.839v1.86a1.44 1.44 0 0 0 .274.857c.182.243.498.365.948.365h3.519zm10.671 7.603c0 .583-.365.875-1.094.875-.717 0-1.076-.292-1.076-.875V14.842H28.22c-.438 0-.669-.31-.693-.93 0-.608.231-.912.693-.912h8.551c.462 0 .681.304.656.912 0 .62-.219.93-.656.93H33.58v11.906zm25.776-4.977h-1.404c-.207 0-.371-.079-.492-.237-.109-.17-.164-.395-.164-.675 0-.62.255-.93.766-.93h2.133c.45 0 .766-.128.948-.383a1.41 1.41 0 0 0 .273-.839v-2.352a1.41 1.41 0 0 0-.273-.839c-.182-.255-.498-.383-.948-.383h-3.847V27.02c0 .583-.359.875-1.076.875s-1.076-.292-1.076-.875V14.386c0-.438.109-.729.328-.875.231-.146.504-.219.82-.219h5.306c.316 0 .644.067.984.201s.669.304.985.511h-.018c.316.231.559.535.729.912.17.365.255.79.255 1.276v2.662c0 .985-.328 1.72-.984 2.206-.134.097-.28.188-.438.273l-.456.255 2.917 4.813c.036.061.073.14.109.237s.055.176.055.237c0 .292-.207.571-.62.839v-.018c-.279.17-.516.255-.711.255-.28 0-.505-.14-.675-.419l.018.018-3.446-5.78zm12.45 5.269c0 .583-.359.875-1.076.875s-1.076-.292-1.076-.875v-4.85l-4.084-7.767a1.16 1.16 0 0 1-.109-.492c0-.352.207-.614.62-.784h-.018c.267-.097.48-.146.638-.146.316 0 .559.158.729.474l3.318 6.236.784-1.477.839-1.623.857-1.623.802-1.513c.097-.146.2-.261.31-.346.122-.085.267-.128.438-.128s.371.049.602.146h-.018c.425.182.638.45.638.802a1.69 1.69 0 0 1-.018.237.73.73 0 0 1-.091.237l-.419.802-.693 1.331-1.149 2.206-1.823 3.482v4.795z"/><path fill-rule="evenodd" d="M39.155 15.735c0-1.511 1.224-2.735 2.735-2.735h7.293c1.511 0 2.735 1.224 2.735 2.735v8.205c0 1.51-1.224 2.735-2.735 2.735h-5.388l-1.975 1.378c-.34.237-.794-.065-.706-.47l.209-.967c-1.238-.261-2.168-1.36-2.168-2.676v-8.205zm2.735-.456h7.293c.252 0 .456.204.456.456v8.205c0 .252-.204.456-.456.456H41.89c-.252 0-.456-.204-.456-.456v-8.205c0-.252.204-.456.456-.456z"/></mask><g fill="#1c1c1c"><path d="M22.91 19.144c.316 0 .644.067.985.2a4.83 4.83 0 0 1 .985.529h-.018a2.12 2.12 0 0 1 .729.893c.17.377.255.808.255 1.294v2.498c0 .985-.328 1.72-.985 2.206a4.38 4.38 0 0 1-.985.547 2.77 2.77 0 0 1-.966.182h-3.975a2.92 2.92 0 0 1-.985-.182c-.328-.134-.65-.316-.966-.547-.656-.486-.985-1.221-.985-2.206v-1.203c0-.571.359-.857 1.076-.857.729 0 1.094.286 1.094.857v1.057a1.44 1.44 0 0 0 .274.857c.182.255.498.383.948.383h3.063c.45 0 .766-.128.948-.383a1.44 1.44 0 0 0 .273-.857v-2.206a1.41 1.41 0 0 0-.273-.839c-.182-.267-.498-.401-.948-.401h-3.519c-.632 0-1.282-.231-1.951-.693-.656-.511-.985-1.246-.985-2.206v-2.17c0-.486.085-.912.255-1.276.17-.377.413-.681.729-.912h-.018a5.41 5.41 0 0 1 .985-.511 2.68 2.68 0 0 1 .985-.201h3.975c.316 0 .644.067.985.201a5.41 5.41 0 0 1 .985.511h-.018c.316.231.559.535.729.912.17.365.255.79.255 1.276v1.076c0 .571-.365.857-1.094.857-.717 0-1.076-.286-1.076-.857v-.912a1.41 1.41 0 0 0-.273-.839c-.182-.255-.498-.383-.948-.383h-3.063c-.45 0-.766.128-.948.383a1.41 1.41 0 0 0-.274.839v1.86a1.44 1.44 0 0 0 .274.857c.182.243.498.365.948.365h3.519zm10.671 7.603c0 .583-.365.875-1.094.875-.717 0-1.076-.292-1.076-.875V14.842H28.22c-.438 0-.669-.31-.693-.93 0-.608.231-.912.693-.912h8.551c.462 0 .681.304.656.912 0 .62-.219.93-.656.93H33.58v11.906zm25.776-4.977h-1.404c-.207 0-.371-.079-.492-.237-.109-.17-.164-.395-.164-.675 0-.62.255-.93.766-.93h2.133c.45 0 .766-.128.948-.383a1.41 1.41 0 0 0 .273-.839v-2.352a1.41 1.41 0 0 0-.273-.839c-.182-.255-.498-.383-.948-.383h-3.847V27.02c0 .583-.359.875-1.076.875s-1.076-.292-1.076-.875V14.386c0-.438.109-.729.328-.875.231-.146.504-.219.82-.219h5.306c.316 0 .644.067.984.201s.669.304.985.511h-.018c.316.231.559.535.729.912.17.365.255.79.255 1.276v2.662c0 .985-.328 1.72-.984 2.206-.134.097-.28.188-.438.273l-.456.255 2.917 4.813c.036.061.073.14.109.237s.055.176.055.237c0 .292-.207.571-.62.839v-.018c-.279.17-.516.255-.711.255-.28 0-.505-.14-.675-.419l.018.018-3.446-5.78zm12.45 5.269c0 .583-.359.875-1.076.875s-1.076-.292-1.076-.875v-4.85l-4.084-7.767a1.16 1.16 0 0 1-.109-.492c0-.352.207-.614.62-.784h-.018c.267-.097.48-.146.638-.146.316 0 .559.158.729.474l3.318 6.236.784-1.477.839-1.623.857-1.623.802-1.513c.097-.146.2-.261.31-.346.122-.085.267-.128.438-.128s.371.049.602.146h-.018c.425.182.638.45.638.802a1.69 1.69 0 0 1-.018.237.73.73 0 0 1-.091.237l-.419.802-.693 1.331-1.149 2.206-1.823 3.482v4.795z"/><path fill-rule="evenodd" d="M39.155 15.735c0-1.511 1.224-2.735 2.735-2.735h7.293c1.511 0 2.735 1.224 2.735 2.735v8.205c0 1.51-1.224 2.735-2.735 2.735h-5.388l-1.975 1.378c-.34.237-.794-.065-.706-.47l.209-.967c-1.238-.261-2.168-1.36-2.168-2.676v-8.205zm2.735-.456h7.293c.252 0 .456.204.456.456v8.205c0 .252-.204.456-.456.456H41.89c-.252 0-.456-.204-.456-.456v-8.205c0-.252.204-.456.456-.456z"/></g><path d="M22.91 19.144c.316 0 .644.067.985.2a4.83 4.83 0 0 1 .985.529h-.018a2.12 2.12 0 0 1 .729.893c.17.377.255.808.255 1.294v2.498c0 .985-.328 1.72-.985 2.206a4.38 4.38 0 0 1-.985.547 2.77 2.77 0 0 1-.966.182h-3.975a2.92 2.92 0 0 1-.985-.182c-.328-.134-.65-.316-.966-.547-.656-.486-.985-1.221-.985-2.206v-1.203c0-.571.359-.857 1.076-.857.729 0 1.094.286 1.094.857v1.057a1.44 1.44 0 0 0 .274.857c.182.255.498.383.948.383h3.063c.45 0 .766-.128.948-.383a1.44 1.44 0 0 0 .273-.857v-2.206a1.41 1.41 0 0 0-.273-.839c-.182-.267-.498-.401-.948-.401h-3.519c-.632 0-1.282-.231-1.951-.693-.656-.511-.985-1.246-.985-2.206v-2.17c0-.486.085-.912.255-1.276.17-.377.413-.681.729-.912h-.018a5.41 5.41 0 0 1 .985-.511 2.68 2.68 0 0 1 .985-.201h3.975c.316 0 .644.067.985.201a5.41 5.41 0 0 1 .985.511h-.018c.316.231.559.535.729.912.17.365.255.79.255 1.276v1.076c0 .571-.365.857-1.094.857-.717 0-1.076-.286-1.076-.857v-.912a1.41 1.41 0 0 0-.273-.839c-.182-.255-.498-.383-.948-.383h-3.063c-.45 0-.766.128-.948.383a1.41 1.41 0 0 0-.274.839v1.86a1.44 1.44 0 0 0 .274.857c.182.243.498.365.948.365h3.519zm10.671 7.603c0 .583-.365.875-1.094.875-.717 0-1.076-.292-1.076-.875V14.842H28.22c-.438 0-.669-.31-.693-.93 0-.608.231-.912.693-.912h8.551c.462 0 .681.304.656.912 0 .62-.219.93-.656.93H33.58v11.906zm25.776-4.977h-1.404c-.207 0-.371-.079-.492-.237-.109-.17-.164-.395-.164-.675 0-.62.255-.93.766-.93h2.133c.45 0 .766-.128.948-.383a1.41 1.41 0 0 0 .273-.839v-2.352a1.41 1.41 0 0 0-.273-.839c-.182-.255-.498-.383-.948-.383h-3.847V27.02c0 .583-.359.875-1.076.875s-1.076-.292-1.076-.875V14.386c0-.438.109-.729.328-.875.231-.146.504-.219.82-.219h5.306c.316 0 .644.067.984.201s.669.304.985.511h-.018c.316.231.559.535.729.912.17.365.255.79.255 1.276v2.662c0 .985-.328 1.72-.984 2.206-.134.097-.28.188-.438.273l-.456.255 2.917 4.813c.036.061.073.14.109.237s.055.176.055.237c0 .292-.207.571-.62.839v-.018c-.279.17-.516.255-.711.255-.28 0-.505-.14-.675-.419l.018.018-3.446-5.78zm12.45 5.269c0 .583-.359.875-1.076.875s-1.076-.292-1.076-.875v-4.85l-4.084-7.767a1.16 1.16 0 0 1-.109-.492c0-.352.207-.614.62-.784h-.018c.267-.097.48-.146.638-.146.316 0 .559.158.729.474l3.318 6.236.784-1.477.839-1.623.857-1.623.802-1.513c.097-.146.2-.261.31-.346.122-.085.267-.128.438-.128s.371.049.602.146h-.018c.425.182.638.45.638.802a1.69 1.69 0 0 1-.018.237.73.73 0 0 1-.091.237l-.419.802-.693 1.331-1.149 2.206-1.823 3.482v4.795zM39.155 15.735c0-1.511 1.224-2.735 2.735-2.735h7.293c1.511 0 2.735 1.224 2.735 2.735v8.205c0 1.51-1.224 2.735-2.735 2.735h-5.388l-1.975 1.378c-.34.237-.794-.065-.706-.47l.209-.967c-1.238-.261-2.168-1.36-2.168-2.676v-8.205zm2.735-.456h7.293c.252 0 .456.204.456.456v8.205c0 .252-.204.456-.456.456H41.89c-.252 0-.456-.204-.456-.456v-8.205c0-.252.204-.456.456-.456z" mask="url(#A)" stroke="#1c1c1c" stroke-width="10"/></svg>