<svg width="92" height="40" viewBox="0 0 92 40" fill="none" xmlns="http://www.w3.org/2000/svg">
<mask id="path-1-inside-1_14_1107" fill="white">
<path d="M22.9101 19.1444C23.2261 19.1444 23.5543 19.2112 23.8947 19.3449C24.235 19.4786 24.5632 19.6549 24.8792 19.8737H24.861C25.177 20.0924 25.4201 20.3902 25.5903 20.767C25.7605 21.1438 25.8455 21.5753 25.8455 22.0615V24.5594C25.8455 25.544 25.5174 26.2793 24.861 26.7655C24.545 26.9965 24.2168 27.1788 23.8764 27.3125C23.5482 27.4341 23.2261 27.4948 22.9101 27.4948H18.9354C18.6194 27.4948 18.2912 27.4341 17.9509 27.3125C17.6227 27.1788 17.3006 26.9965 16.9846 26.7655C16.3282 26.2793 16 25.544 16 24.5594V23.3561C16 22.7848 16.3586 22.4991 17.0757 22.4991C17.805 22.4991 18.1697 22.7848 18.1697 23.3561V24.4135C18.1697 24.7296 18.2608 25.0152 18.4432 25.2705C18.6255 25.5257 18.9415 25.6533 19.3912 25.6533H22.4543C22.904 25.6533 23.2201 25.5257 23.4024 25.2705C23.5847 25.0152 23.6759 24.7296 23.6759 24.4135V22.2074C23.6759 21.9035 23.5847 21.624 23.4024 21.3687C23.2201 21.1013 22.904 20.9676 22.4543 20.9676H18.9354C18.3034 20.9676 17.6531 20.7367 16.9846 20.2748C16.3282 19.7643 16 19.0289 16 18.0686V15.899C16 15.4128 16.0851 14.9873 16.2553 14.6227C16.4254 14.2459 16.6685 13.942 16.9846 13.7111H16.9663C17.2824 13.5044 17.6105 13.3343 17.9509 13.2006C18.2912 13.0669 18.6194 13 18.9354 13H22.9101C23.2261 13 23.5543 13.0669 23.8947 13.2006C24.235 13.3343 24.5632 13.5044 24.8792 13.7111H24.861C25.177 13.942 25.4201 14.2459 25.5903 14.6227C25.7605 14.9873 25.8455 15.4128 25.8455 15.899V16.9747C25.8455 17.546 25.4809 17.8316 24.7516 17.8316C24.0344 17.8316 23.6759 17.546 23.6759 16.9747V16.0631C23.6759 15.7592 23.5847 15.4796 23.4024 15.2244C23.2201 14.9691 22.904 14.8415 22.4543 14.8415H19.3912C18.9415 14.8415 18.6255 14.9691 18.4432 15.2244C18.2608 15.4796 18.1697 15.7592 18.1697 16.0631V17.9228C18.1697 18.2388 18.2608 18.5244 18.4432 18.7797C18.6255 19.0228 18.9415 19.1444 19.3912 19.1444H22.9101Z"/>
<path d="M33.581 26.7473C33.581 27.3307 33.2163 27.6225 32.487 27.6225C31.7699 27.6225 31.4113 27.3307 31.4113 26.7473V14.8415H28.2206C27.783 14.8415 27.5521 14.5315 27.5278 13.9116C27.5278 13.3039 27.7587 13 28.2206 13H36.7716C37.2335 13 37.4523 13.3039 37.428 13.9116C37.428 14.5315 37.2092 14.8415 36.7716 14.8415H33.581V26.7473Z"/>
<path d="M59.3569 21.7698H57.953C57.7463 21.7698 57.5822 21.6908 57.4607 21.5328C57.3513 21.3626 57.2966 21.1378 57.2966 20.8582C57.2966 20.2383 57.5519 19.9283 58.0624 19.9283H60.1956C60.6453 19.9283 60.9613 19.8007 61.1437 19.5455C61.326 19.2902 61.4171 19.0106 61.4171 18.7068V16.3548C61.4171 16.0509 61.326 15.7713 61.1437 15.5161C60.9613 15.2608 60.6453 15.1332 60.1956 15.1332H56.3485V27.0208C56.3485 27.6042 55.9899 27.8959 55.2728 27.8959C54.5557 27.8959 54.1971 27.6042 54.1971 27.0208V14.3857C54.1971 13.9481 54.3065 13.6564 54.5253 13.5105C54.7562 13.3647 55.0297 13.2917 55.3457 13.2917H60.6514C60.9674 13.2917 61.2956 13.3586 61.6359 13.4923C61.9763 13.626 62.3045 13.7962 62.6205 14.0028H62.6023C62.9183 14.2337 63.1614 14.5376 63.3316 14.9144C63.5017 15.2791 63.5868 15.7045 63.5868 16.1907V18.8526C63.5868 19.8372 63.2586 20.5726 62.6023 21.0588C62.4686 21.156 62.3227 21.2472 62.1647 21.3322C62.0188 21.4173 61.8669 21.5024 61.7089 21.5875L64.6261 26.4009C64.6625 26.4617 64.699 26.5407 64.7355 26.6379C64.7719 26.7351 64.7901 26.8141 64.7901 26.8749C64.7901 27.1666 64.5835 27.4462 64.1702 27.7136V27.6954C63.8907 27.8656 63.6537 27.9506 63.4592 27.9506C63.1796 27.9506 62.9547 27.8109 62.7846 27.5313L62.8028 27.5495L59.3569 21.7698Z"/>
<path d="M71.8065 27.039C71.8065 27.6225 71.448 27.9142 70.7308 27.9142C70.0137 27.9142 69.6551 27.6225 69.6551 27.039V22.1892L65.571 14.4221C65.4981 14.2641 65.4616 14.1 65.4616 13.9299C65.4616 13.5774 65.6683 13.316 66.0815 13.1459H66.0633C66.3307 13.0486 66.5434 13 66.7014 13C67.0175 13 67.2606 13.158 67.4307 13.474L70.749 19.7096C70.9921 19.2477 71.2535 18.7554 71.533 18.2327C71.8126 17.6979 72.0922 17.157 72.3717 16.61C72.6635 16.0631 72.9491 15.5222 73.2287 14.9873C73.5082 14.4525 73.7756 13.9481 74.0309 13.474C74.1281 13.3282 74.2314 13.2127 74.3408 13.1276C74.4624 13.0425 74.6082 13 74.7784 13C74.9486 13 75.1492 13.0486 75.3801 13.1459H75.3619C75.7873 13.3282 76 13.5956 76 13.9481C76 14.021 75.9939 14.1 75.9818 14.1851C75.9696 14.258 75.9392 14.337 75.8906 14.4221C75.7812 14.6409 75.6414 14.9083 75.4713 15.2244C75.3132 15.5404 75.0823 15.9841 74.7784 16.5553C74.4867 17.1145 74.1038 17.8498 73.6298 18.7615C73.1557 19.6609 72.548 20.8217 71.8065 22.2439V27.039Z"/>
<path fill-rule="evenodd" clip-rule="evenodd" d="M39.1553 15.7349C39.1553 14.2244 40.3797 13 41.8902 13H49.1831C50.6936 13 51.918 14.2244 51.918 15.7349V23.9395C51.918 25.4499 50.6936 26.6744 49.1831 26.6744H43.7952L41.8201 28.0522C41.4804 28.2892 41.0263 27.9869 41.1138 27.582L41.3228 26.6154C40.0846 26.3542 39.1553 25.2554 39.1553 23.9395V15.7349ZM41.8902 15.2791H49.1831C49.4349 15.2791 49.639 15.4831 49.639 15.7349V23.9395C49.639 24.1912 49.4349 24.3953 49.1831 24.3953H41.8902C41.6384 24.3953 41.4343 24.1912 41.4343 23.9395V15.7349C41.4343 15.4831 41.6384 15.2791 41.8902 15.2791Z"/>
</mask>
<path d="M22.9101 19.1444C23.2261 19.1444 23.5543 19.2112 23.8947 19.3449C24.235 19.4786 24.5632 19.6549 24.8792 19.8737H24.861C25.177 20.0924 25.4201 20.3902 25.5903 20.767C25.7605 21.1438 25.8455 21.5753 25.8455 22.0615V24.5594C25.8455 25.544 25.5174 26.2793 24.861 26.7655C24.545 26.9965 24.2168 27.1788 23.8764 27.3125C23.5482 27.4341 23.2261 27.4948 22.9101 27.4948H18.9354C18.6194 27.4948 18.2912 27.4341 17.9509 27.3125C17.6227 27.1788 17.3006 26.9965 16.9846 26.7655C16.3282 26.2793 16 25.544 16 24.5594V23.3561C16 22.7848 16.3586 22.4991 17.0757 22.4991C17.805 22.4991 18.1697 22.7848 18.1697 23.3561V24.4135C18.1697 24.7296 18.2608 25.0152 18.4432 25.2705C18.6255 25.5257 18.9415 25.6533 19.3912 25.6533H22.4543C22.904 25.6533 23.2201 25.5257 23.4024 25.2705C23.5847 25.0152 23.6759 24.7296 23.6759 24.4135V22.2074C23.6759 21.9035 23.5847 21.624 23.4024 21.3687C23.2201 21.1013 22.904 20.9676 22.4543 20.9676H18.9354C18.3034 20.9676 17.6531 20.7367 16.9846 20.2748C16.3282 19.7643 16 19.0289 16 18.0686V15.899C16 15.4128 16.0851 14.9873 16.2553 14.6227C16.4254 14.2459 16.6685 13.942 16.9846 13.7111H16.9663C17.2824 13.5044 17.6105 13.3343 17.9509 13.2006C18.2912 13.0669 18.6194 13 18.9354 13H22.9101C23.2261 13 23.5543 13.0669 23.8947 13.2006C24.235 13.3343 24.5632 13.5044 24.8792 13.7111H24.861C25.177 13.942 25.4201 14.2459 25.5903 14.6227C25.7605 14.9873 25.8455 15.4128 25.8455 15.899V16.9747C25.8455 17.546 25.4809 17.8316 24.7516 17.8316C24.0344 17.8316 23.6759 17.546 23.6759 16.9747V16.0631C23.6759 15.7592 23.5847 15.4796 23.4024 15.2244C23.2201 14.9691 22.904 14.8415 22.4543 14.8415H19.3912C18.9415 14.8415 18.6255 14.9691 18.4432 15.2244C18.2608 15.4796 18.1697 15.7592 18.1697 16.0631V17.9228C18.1697 18.2388 18.2608 18.5244 18.4432 18.7797C18.6255 19.0228 18.9415 19.1444 19.3912 19.1444H22.9101Z" fill="#1C1C1C"/>
<path d="M33.581 26.7473C33.581 27.3307 33.2163 27.6225 32.487 27.6225C31.7699 27.6225 31.4113 27.3307 31.4113 26.7473V14.8415H28.2206C27.783 14.8415 27.5521 14.5315 27.5278 13.9116C27.5278 13.3039 27.7587 13 28.2206 13H36.7716C37.2335 13 37.4523 13.3039 37.428 13.9116C37.428 14.5315 37.2092 14.8415 36.7716 14.8415H33.581V26.7473Z" fill="#1C1C1C"/>
<path d="M59.3569 21.7698H57.953C57.7463 21.7698 57.5822 21.6908 57.4607 21.5328C57.3513 21.3626 57.2966 21.1378 57.2966 20.8582C57.2966 20.2383 57.5519 19.9283 58.0624 19.9283H60.1956C60.6453 19.9283 60.9613 19.8007 61.1437 19.5455C61.326 19.2902 61.4171 19.0106 61.4171 18.7068V16.3548C61.4171 16.0509 61.326 15.7713 61.1437 15.5161C60.9613 15.2608 60.6453 15.1332 60.1956 15.1332H56.3485V27.0208C56.3485 27.6042 55.9899 27.8959 55.2728 27.8959C54.5557 27.8959 54.1971 27.6042 54.1971 27.0208V14.3857C54.1971 13.9481 54.3065 13.6564 54.5253 13.5105C54.7562 13.3647 55.0297 13.2917 55.3457 13.2917H60.6514C60.9674 13.2917 61.2956 13.3586 61.6359 13.4923C61.9763 13.626 62.3045 13.7962 62.6205 14.0028H62.6023C62.9183 14.2337 63.1614 14.5376 63.3316 14.9144C63.5017 15.2791 63.5868 15.7045 63.5868 16.1907V18.8526C63.5868 19.8372 63.2586 20.5726 62.6023 21.0588C62.4686 21.156 62.3227 21.2472 62.1647 21.3322C62.0188 21.4173 61.8669 21.5024 61.7089 21.5875L64.6261 26.4009C64.6625 26.4617 64.699 26.5407 64.7355 26.6379C64.7719 26.7351 64.7901 26.8141 64.7901 26.8749C64.7901 27.1666 64.5835 27.4462 64.1702 27.7136V27.6954C63.8907 27.8656 63.6537 27.9506 63.4592 27.9506C63.1796 27.9506 62.9547 27.8109 62.7846 27.5313L62.8028 27.5495L59.3569 21.7698Z" fill="#1C1C1C"/>
<path d="M71.8065 27.039C71.8065 27.6225 71.448 27.9142 70.7308 27.9142C70.0137 27.9142 69.6551 27.6225 69.6551 27.039V22.1892L65.571 14.4221C65.4981 14.2641 65.4616 14.1 65.4616 13.9299C65.4616 13.5774 65.6683 13.316 66.0815 13.1459H66.0633C66.3307 13.0486 66.5434 13 66.7014 13C67.0175 13 67.2606 13.158 67.4307 13.474L70.749 19.7096C70.9921 19.2477 71.2535 18.7554 71.533 18.2327C71.8126 17.6979 72.0922 17.157 72.3717 16.61C72.6635 16.0631 72.9491 15.5222 73.2287 14.9873C73.5082 14.4525 73.7756 13.9481 74.0309 13.474C74.1281 13.3282 74.2314 13.2127 74.3408 13.1276C74.4624 13.0425 74.6082 13 74.7784 13C74.9486 13 75.1492 13.0486 75.3801 13.1459H75.3619C75.7873 13.3282 76 13.5956 76 13.9481C76 14.021 75.9939 14.1 75.9818 14.1851C75.9696 14.258 75.9392 14.337 75.8906 14.4221C75.7812 14.6409 75.6414 14.9083 75.4713 15.2244C75.3132 15.5404 75.0823 15.9841 74.7784 16.5553C74.4867 17.1145 74.1038 17.8498 73.6298 18.7615C73.1557 19.6609 72.548 20.8217 71.8065 22.2439V27.039Z" fill="#1C1C1C"/>
<path fill-rule="evenodd" clip-rule="evenodd" d="M39.1553 15.7349C39.1553 14.2244 40.3797 13 41.8902 13H49.1831C50.6936 13 51.918 14.2244 51.918 15.7349V23.9395C51.918 25.4499 50.6936 26.6744 49.1831 26.6744H43.7952L41.8201 28.0522C41.4804 28.2892 41.0263 27.9869 41.1138 27.582L41.3228 26.6154C40.0846 26.3542 39.1553 25.2554 39.1553 23.9395V15.7349ZM41.8902 15.2791H49.1831C49.4349 15.2791 49.639 15.4831 49.639 15.7349V23.9395C49.639 24.1912 49.4349 24.3953 49.1831 24.3953H41.8902C41.6384 24.3953 41.4343 24.1912 41.4343 23.9395V15.7349C41.4343 15.4831 41.6384 15.2791 41.8902 15.2791Z" fill="#1C1C1C"/>
<path d="M22.9101 19.1444C23.2261 19.1444 23.5543 19.2112 23.8947 19.3449C24.235 19.4786 24.5632 19.6549 24.8792 19.8737H24.861C25.177 20.0924 25.4201 20.3902 25.5903 20.767C25.7605 21.1438 25.8455 21.5753 25.8455 22.0615V24.5594C25.8455 25.544 25.5174 26.2793 24.861 26.7655C24.545 26.9965 24.2168 27.1788 23.8764 27.3125C23.5482 27.4341 23.2261 27.4948 22.9101 27.4948H18.9354C18.6194 27.4948 18.2912 27.4341 17.9509 27.3125C17.6227 27.1788 17.3006 26.9965 16.9846 26.7655C16.3282 26.2793 16 25.544 16 24.5594V23.3561C16 22.7848 16.3586 22.4991 17.0757 22.4991C17.805 22.4991 18.1697 22.7848 18.1697 23.3561V24.4135C18.1697 24.7296 18.2608 25.0152 18.4432 25.2705C18.6255 25.5257 18.9415 25.6533 19.3912 25.6533H22.4543C22.904 25.6533 23.2201 25.5257 23.4024 25.2705C23.5847 25.0152 23.6759 24.7296 23.6759 24.4135V22.2074C23.6759 21.9035 23.5847 21.624 23.4024 21.3687C23.2201 21.1013 22.904 20.9676 22.4543 20.9676H18.9354C18.3034 20.9676 17.6531 20.7367 16.9846 20.2748C16.3282 19.7643 16 19.0289 16 18.0686V15.899C16 15.4128 16.0851 14.9873 16.2553 14.6227C16.4254 14.2459 16.6685 13.942 16.9846 13.7111H16.9663C17.2824 13.5044 17.6105 13.3343 17.9509 13.2006C18.2912 13.0669 18.6194 13 18.9354 13H22.9101C23.2261 13 23.5543 13.0669 23.8947 13.2006C24.235 13.3343 24.5632 13.5044 24.8792 13.7111H24.861C25.177 13.942 25.4201 14.2459 25.5903 14.6227C25.7605 14.9873 25.8455 15.4128 25.8455 15.899V16.9747C25.8455 17.546 25.4809 17.8316 24.7516 17.8316C24.0344 17.8316 23.6759 17.546 23.6759 16.9747V16.0631C23.6759 15.7592 23.5847 15.4796 23.4024 15.2244C23.2201 14.9691 22.904 14.8415 22.4543 14.8415H19.3912C18.9415 14.8415 18.6255 14.9691 18.4432 15.2244C18.2608 15.4796 18.1697 15.7592 18.1697 16.0631V17.9228C18.1697 18.2388 18.2608 18.5244 18.4432 18.7797C18.6255 19.0228 18.9415 19.1444 19.3912 19.1444H22.9101Z" stroke="#1C1C1C" stroke-width="10" mask="url(#path-1-inside-1_14_1107)"/>
<path d="M33.581 26.7473C33.581 27.3307 33.2163 27.6225 32.487 27.6225C31.7699 27.6225 31.4113 27.3307 31.4113 26.7473V14.8415H28.2206C27.783 14.8415 27.5521 14.5315 27.5278 13.9116C27.5278 13.3039 27.7587 13 28.2206 13H36.7716C37.2335 13 37.4523 13.3039 37.428 13.9116C37.428 14.5315 37.2092 14.8415 36.7716 14.8415H33.581V26.7473Z" stroke="#1C1C1C" stroke-width="10" mask="url(#path-1-inside-1_14_1107)"/>
<path d="M59.3569 21.7698H57.953C57.7463 21.7698 57.5822 21.6908 57.4607 21.5328C57.3513 21.3626 57.2966 21.1378 57.2966 20.8582C57.2966 20.2383 57.5519 19.9283 58.0624 19.9283H60.1956C60.6453 19.9283 60.9613 19.8007 61.1437 19.5455C61.326 19.2902 61.4171 19.0106 61.4171 18.7068V16.3548C61.4171 16.0509 61.326 15.7713 61.1437 15.5161C60.9613 15.2608 60.6453 15.1332 60.1956 15.1332H56.3485V27.0208C56.3485 27.6042 55.9899 27.8959 55.2728 27.8959C54.5557 27.8959 54.1971 27.6042 54.1971 27.0208V14.3857C54.1971 13.9481 54.3065 13.6564 54.5253 13.5105C54.7562 13.3647 55.0297 13.2917 55.3457 13.2917H60.6514C60.9674 13.2917 61.2956 13.3586 61.6359 13.4923C61.9763 13.626 62.3045 13.7962 62.6205 14.0028H62.6023C62.9183 14.2337 63.1614 14.5376 63.3316 14.9144C63.5017 15.2791 63.5868 15.7045 63.5868 16.1907V18.8526C63.5868 19.8372 63.2586 20.5726 62.6023 21.0588C62.4686 21.156 62.3227 21.2472 62.1647 21.3322C62.0188 21.4173 61.8669 21.5024 61.7089 21.5875L64.6261 26.4009C64.6625 26.4617 64.699 26.5407 64.7355 26.6379C64.7719 26.7351 64.7901 26.8141 64.7901 26.8749C64.7901 27.1666 64.5835 27.4462 64.1702 27.7136V27.6954C63.8907 27.8656 63.6537 27.9506 63.4592 27.9506C63.1796 27.9506 62.9547 27.8109 62.7846 27.5313L62.8028 27.5495L59.3569 21.7698Z" stroke="#1C1C1C" stroke-width="10" mask="url(#path-1-inside-1_14_1107)"/>
<path d="M71.8065 27.039C71.8065 27.6225 71.448 27.9142 70.7308 27.9142C70.0137 27.9142 69.6551 27.6225 69.6551 27.039V22.1892L65.571 14.4221C65.4981 14.2641 65.4616 14.1 65.4616 13.9299C65.4616 13.5774 65.6683 13.316 66.0815 13.1459H66.0633C66.3307 13.0486 66.5434 13 66.7014 13C67.0175 13 67.2606 13.158 67.4307 13.474L70.749 19.7096C70.9921 19.2477 71.2535 18.7554 71.533 18.2327C71.8126 17.6979 72.0922 17.157 72.3717 16.61C72.6635 16.0631 72.9491 15.5222 73.2287 14.9873C73.5082 14.4525 73.7756 13.9481 74.0309 13.474C74.1281 13.3282 74.2314 13.2127 74.3408 13.1276C74.4624 13.0425 74.6082 13 74.7784 13C74.9486 13 75.1492 13.0486 75.3801 13.1459H75.3619C75.7873 13.3282 76 13.5956 76 13.9481C76 14.021 75.9939 14.1 75.9818 14.1851C75.9696 14.258 75.9392 14.337 75.8906 14.4221C75.7812 14.6409 75.6414 14.9083 75.4713 15.2244C75.3132 15.5404 75.0823 15.9841 74.7784 16.5553C74.4867 17.1145 74.1038 17.8498 73.6298 18.7615C73.1557 19.6609 72.548 20.8217 71.8065 22.2439V27.039Z" stroke="#1C1C1C" stroke-width="10" mask="url(#path-1-inside-1_14_1107)"/>
<path fill-rule="evenodd" clip-rule="evenodd" d="M39.1553 15.7349C39.1553 14.2244 40.3797 13 41.8902 13H49.1831C50.6936 13 51.918 14.2244 51.918 15.7349V23.9395C51.918 25.4499 50.6936 26.6744 49.1831 26.6744H43.7952L41.8201 28.0522C41.4804 28.2892 41.0263 27.9869 41.1138 27.582L41.3228 26.6154C40.0846 26.3542 39.1553 25.2554 39.1553 23.9395V15.7349ZM41.8902 15.2791H49.1831C49.4349 15.2791 49.639 15.4831 49.639 15.7349V23.9395C49.639 24.1912 49.4349 24.3953 49.1831 24.3953H41.8902C41.6384 24.3953 41.4343 24.1912 41.4343 23.9395V15.7349C41.4343 15.4831 41.6384 15.2791 41.8902 15.2791Z" stroke="#1C1C1C" stroke-width="10" mask="url(#path-1-inside-1_14_1107)"/>
</svg>
